<svg width="18" height="14" viewBox="0 0 18 14" fill="none" xmlns="http://www.w3.org/2000/svg">
<path d="M16.3125 0H1.6875C0.755508 0 0 0.734139 0 1.63977V11.4784C0 12.384 0.755508 13.1182 1.6875 13.1182H16.3125C17.2445 13.1182 18 12.384 18 11.4784V1.63977C18 0.734139 17.2445 0 16.3125 0ZM16.3125 1.63977V3.03375C15.5242 3.65751 14.2675 4.62743 11.5809 6.67165C10.9889 7.12419 9.81605 8.21139 9 8.19872C8.18409 8.21153 7.01089 7.12402 6.41907 6.67165C3.73289 4.62774 2.47588 3.65761 1.6875 3.03375V1.63977H16.3125ZM1.6875 11.4784V5.13788C2.49307 5.76137 3.63547 6.63629 5.37673 7.96122C6.14514 8.54898 7.49081 9.84648 9 9.83859C10.5018 9.84648 11.8304 8.5678 12.623 7.9615C14.3642 6.6366 15.5069 5.76144 16.3125 5.13791V11.4784H1.6875Z" fill="#6A6F73"/>
</svg>
