<svg width="18" height="20" viewBox="0 0 18 20" fill="none" xmlns="http://www.w3.org/2000/svg">
<path d="M16.0714 10H6.10714V5.97268C6.10714 4.42581 7.3808 3.14066 8.97188 3.12503C10.579 3.10941 11.8929 4.37894 11.8929 5.93753V10C11.8929 10.5195 12.3228 10.9375 12.8571 10.9375H14.1429C14.6772 10.9375 15.1071 10.5195 15.1071 10V5.93753C15.1071 2.65628 12.3549 -0.0116803 8.97991 3.84577e-05C5.60491 0.0117572 2.89286 2.71488 2.89286 5.99612V10H1.92857C0.863839 10 0 10.8399 0 11.875V18.125C0 19.1602 0.863839 20 1.92857 20H16.0714C17.1362 20 18 19.1602 18 18.125V11.875C18 10.8399 17.1362 10 16.0714 10ZM10.6071 15.9375C10.6071 16.8008 9.88795 17.5 9 17.5C8.11205 17.5 7.39286 16.8008 7.39286 15.9375V14.0625C7.39286 13.1992 8.11205 12.5 9 12.5C9.88795 12.5 10.6071 13.1992 10.6071 14.0625V15.9375Z" fill="#6A6F73"/>
</svg>
